# File created by Blade
# Date/Time:  Fri Jan 16 19:14:28 2015
# Frame Rate: 120.000 fps
#------------------------------------------------------
:FULLY-SPECIFIED
:DEGREES
1202
root 19.165410 35.668458 -21.224069 -168.530857 -2.497027 -178.871728
Spine -20.630679 0.993419 -1.005498
Head 7.910109 -3.013414 2.112946
LeftShoulder -10.889097 -33.591894 17.981867
LeftArm 0.019446 0.148564 -7.915288
LeftForeArm 12.605626 -0.000000 -2.592527
LeftHand -3.913383 -0.000000 -6.212077
LeftHandThumb1 -26.253704 0.000000 33.147579
RightShoulder -9.163105 -0.832483 -9.629876
RightArm 1.139319 42.557159 14.955515
RightForeArm -37.799283 -0.000000 6.264914
RightHand -3.287388 -0.000000 -1.119786
RightHandThumb1 -24.326973 -0.000000 -32.862282
LeftUpLeg -3.955724 7.298080 0.264048
LeftLeg -6.915123 -0.000000 0.000000
LeftFoot -18.749752 28.329756 -12.559574
LeftToeBase 25.358967 -0.000000 -0.000000
RightUpLeg -4.981404 -9.580944 1.483001
RightLeg -3.937632 -0.000000 0.000000
RightFoot -19.272750 -24.641757 16.214679
RightToeBase 23.883950 -0.000000 -0.000000
1203
root 19.164648 35.667988 -21.226163 -168.503269 -2.500099 -178.871738
Spine -20.668319 0.986387 -1.012050
Head 7.949045 -3.021001 2.105113
LeftShoulder -10.883350 -33.590677 18.000856
LeftArm 0.037372 0.158014 -7.921241
LeftForeArm 12.638863 -0.000000 -2.606554
LeftHand -3.906537 -0.000000 -6.249948
LeftHandThumb1 -26.253704 0.000000 33.147579
RightShoulder -9.156795 -0.851771 -9.644048
RightArm 1.186161 42.576390 14.990166
RightForeArm -37.761851 -0.000000 6.252200
RightHand -3.296359 -0.000000 -1.092201
RightHandThumb1 -24.326973 -0.000000 -32.862282
LeftUpLeg -3.978121 7.301045 0.259830
LeftLeg -6.920786 -0.000000 0.000000
LeftFoot -18.750044 28.331037 -12.551871
LeftToeBase 25.350571 -0.000000 -0.000000
RightUpLeg -4.997986 -9.596589 1.483273
RightLeg -3.950330 -0.000000 0.000000
RightFoot -19.265139 -24.611933 16.207939
RightToeBase 23.926880 -0.000000 -0.000000
1204
root 19.163943 35.667703 -21.228852 -168.481238 -2.505397 -178.867772
Spine -20.699312 0.987447 -1.014815
Head 7.990632 -3.032846 2.094574
LeftShoulder -10.873487 -33.586217 18.019392
LeftArm 0.069511 0.285284 -7.937144
LeftForeArm 12.538178 -0.000000 -2.642840
LeftHand -3.901012 -0.000000 -6.259424
LeftHandThumb1 -26.253704 0.000000 33.147579
RightShoulder -9.151016 -0.853546 -9.667025
RightArm 1.206960 42.641779 15.021709
RightForeArm -37.839022 -0.000000 6.260657
RightHand -3.335336 -0.000000 -1.054456
RightHandThumb1 -24.326973 -0.000000 -32.862282
LeftUpLeg -3.991972 7.304474 0.260714
LeftLeg -6.931040 -0.000000 0.000000
LeftFoot -18.749895 28.325387 -12.541439
LeftToeBase 25.384758 -0.000000 -0.000000
RightUpLeg -5.016072 -9.599256 1.492413
RightLeg -3.952555 -0.000000 0.000000
RightFoot -19.272291 -24.627918 16.213983
RightToeBase 23.941717 -0.000000 -0.000000
1205
root 19.162456 35.666916 -21.232116 -168.461954 -2.505550 -178.869189
Spine -20.731786 0.992700 -1.026774
Head 8.047082 -3.025124 2.096136
LeftShoulder -10.839693 -33.561788 18.019491
LeftArm 0.066364 0.175305 -7.937828
LeftForeArm 12.665139 0.000000 -2.616080
LeftHand -3.906820 0.000000 -6.235565
LeftHandThumb1 -26.253704 0.000000 33.147579
RightShoulder -9.118151 -0.897806 -9.682133
RightArm 1.184695 42.724235 15.020008
RightForeArm -37.818279 -0.000000 6.245782
RightHand -3.323408 0.000000 -1.056489
RightHandThumb1 -24.326973 -0.000000 -32.862282
LeftUpLeg -4.002692 7.306967 0.254791
LeftLeg -6.937656 -0.000000 0.000000
LeftFoot -18.751566 28.320018 -12.539273
LeftToeBase 25.382492 -0.000000 -0.000000
RightUpLeg -5.025875 -9.612864 1.494130
RightLeg -3.962636 -0.000000 0.000000
RightFoot -19.271757 -24.625213 16.219099
RightToeBase 23.935757 -0.000000 -0.000000
1206
root 19.161242 35.666643 -21.234373 -168.439666 -2.509376 -178.868246
Spine -20.766356 0.998342 -1.033706
Head 8.097000 -3.024241 2.077513
LeftShoulder -10.803144 -33.559644 18.022515
LeftArm 0.062698 0.161826 -7.940511
LeftForeArm 12.677213 -0.000000 -2.611860
LeftHand -3.904590 -0.000000 -6.243766
LeftHandThumb1 -26.253704 0.000000 33.147579
RightShoulder -9.103073 -0.902524 -9.698142
RightArm 1.179920 42.784788 15.021756
RightForeArm -37.817970 -0.000000 6.241962
RightHand -3.302145 -0.000000 -1.069500
RightHandThumb1 -24.326973 -0.000000 -32.862282
LeftUpLeg -4.016643 7.305650 0.252512
LeftLeg -6.947227 -0.000000 0.000000
LeftFoot -18.750006 28.315223 -12.535727
LeftToeBase 25.418660 -0.000000 -0.000000
RightUpLeg -5.047943 -9.632175 1.498392
RightLeg -3.956366 -0.000000 0.000000
RightFoot -19.265397 -24.610454 16.201260
RightToeBase 23.947992 -0.000000 -0.000000
1207
root 19.160156 35.666293 -21.235778 -168.413751 -2.505861 -178.869436
Spine -20.797153 1.010807 -1.048000
Head 8.132574 -3.024628 2.078518
LeftShoulder -10.774474 -33.527379 18.012767
LeftArm 0.105905 0.131102 -7.938851
LeftForeArm 12.706293 -0.000000 -2.642953
LeftHand -3.950994 -0.000000 -6.195264
LeftHandThumb1 -26.253704 0.000000 33.147579
RightShoulder -9.102850 -0.887068 -9.704737
RightArm 1.190321 42.811464 15.010791
RightForeArm -37.776110 -0.000000 6.220216
RightHand -3.278200 -0.000000 -1.007892
RightHandThumb1 -24.326973 -0.000000 -32.862282
LeftUpLeg -4.031552 7.309561 0.246104
LeftLeg -6.962297 -0.000000 0.000000
LeftFoot -18.744495 28.306857 -12.539728
LeftToeBase 25.434264 -0.000000 -0.000000
RightUpLeg -5.093658 -9.694872 1.508641
RightLeg -3.919815 -0.000000 0.000000
RightFoot -19.276729 -24.544482 16.204506
RightToeBase 23.905762 -0.000000 -0.000000
